# xmcd
# 
# Track frame offsets:
#     150
#     10396
#     28958
#     43815
#     58629
#     67779
#     82975
#     107250
#     121890
#     134432
#     151557
#     169269
#     188897
#     200452
#     217109
#     238601
#     253005
#     275271
#     294734
#     307408
# 
# Disc length: 4442
# 
# Revision: 0
# Processed by: cddbd v1.5.2PL0 Copyright (c) Steve Scherf et al.
# Submitted via: fre:ac v1.0.27
# 
DISCID=22115814
DTITLE=Loquillo - The platinum collection - CD1
DYEAR=2007
DGENRE=Rock and Roll
TTITLE0=Esto No Es Hawaii (Qué Wai)
TTITLE1=Rock And Roll Star
TTITLE2=Vaqueros Del Espacio
TTITLE3=No Bailes Rock 'N' Roll en el corte inglés
TTITLE4=María
TTITLE5=En Las Calles De Madrid
TTITLE6=Avenida De La Luz
TTITLE7=Chanel, Cocaina Y Don Perignon
TTITLE8=Rock Suave
TTITLE9=Carne Para Linda
TTITLE10=Siempre Libre
TTITLE11=La Mataré
TTITLE12=Piratas
TTITLE13=Mis Problemas Con Las Mujeres
TTITLE14=El Rompeolas
TTITLE15=Todo El Mundo Ama Isabel
TTITLE16=El Ritmo Del Garaje (directo)
TTITLE17=Cadillac Solitario (directo)
TTITLE18=Quiero Un Camión (directo)
TTITLE19=Autopista (directo)
EXTD=
EXTT0=
EXTT1=
EXTT2=
EXTT3=
EXTT4=
EXTT5=
EXTT6=
EXTT7=
EXTT8=
EXTT9=
EXTT10=
EXTT11=
EXTT12=
EXTT13=
EXTT14=
EXTT15=
EXTT16=
EXTT17=
EXTT18=
EXTT19=
PLAYORDER=
